<?xml version="1.0" standalone="no"?><!DOCTYPE svg PUBLIC "-//W3C//DTD SVG 1.1//EN" "http://www.w3.org/Graphics/SVG/1.1/DTD/svg11.dtd"><svg t="1527952361732" class="icon" style="" viewBox="0 0 1024 1024" version="1.1" xmlns="http://www.w3.org/2000/svg" p-id="1551" xmlns:xlink="http://www.w3.org/1999/xlink" width="64" height="64"><defs><style type="text/css"></style></defs><path d="M240.926188 680.849616c51.015907 0 95.906304-22.425755 123.110899-56.55404 32.655747 34.129308 86.574774 56.55404 147.792021 56.55404 61.217247 0 115.097388-22.425755 147.757229-56.55404 27.239388 34.129308 72.163553 56.55404 123.149784 56.55404 83.074044 0 150.499689-59.222823 150.499689-132.290979 0-65.091484-53.618175-118.89897-124.049271-129.922025-8.617261-1.50733-17.421788-2.372024-26.451442-2.372024L572.029188 416.264589 572.029188 298.721499 451.628004 298.721499l0 117.581975L240.926188 416.303474c-9.033747 0-17.874089 0.826831-26.451442 2.372024-70.475098 10.984169-124.053364 64.791655-124.053364 129.918955C90.421382 621.626793 157.771303 680.849616 240.926188 680.849616L240.926188 680.849616zM511.829108 269.338285c33.224706 0 60.238966-26.339902 60.238966-58.810431 0-32.470529-60.238966-146.96519-60.238966-146.96519s-60.201104 114.493637-60.201104 146.96519C451.628004 242.998383 478.604402 269.338285 511.829108 269.338285L511.829108 269.338285zM658.308227 678.103062c-32.773428 37.133735-85.97614 61.558008-146.479119 61.558008s-113.705692-24.384363-146.474003-61.558008c-29.387307 36.871769-80.710206 61.558008-139.51552 61.558008-56.102762 0-105.465007-22.425755-135.417179-56.516178l0 136.468115c0 81.158415 67.348897 146.96519 150.504806 146.96519l541.809933 0c83.074044 0 150.499689-65.806775 150.499689-146.96519L933.236833 683.06712c-29.948079 34.129308-79.353302 56.592926-135.489834 56.592926C738.974431 739.660046 687.652556 714.973808 658.308227 678.103062L658.308227 678.103062zM658.308227 678.103062" p-id="1552" fill="#1296db"></path></svg>