<?xml version="1.0" standalone="no"?><!DOCTYPE svg PUBLIC "-//W3C//DTD SVG 1.1//EN" "http://www.w3.org/Graphics/SVG/1.1/DTD/svg11.dtd"><svg t="1537773837578" class="icon" style="" viewBox="0 0 1024 1024" version="1.1" xmlns="http://www.w3.org/2000/svg" p-id="2382" xmlns:xlink="http://www.w3.org/1999/xlink" width="64" height="64"><defs><style type="text/css"></style></defs><path d="M246.947322 452.578656c71.009264 139.553383 185.167257 253.710352 324.966233 324.719616L680.400385 668.565848c13.560854-13.560854 33.039487-17.505699 50.051953-12.081153 55.229882 18.24555 114.650203 28.108175 176.044482 28.108175 27.368324 0 49.312102 21.943778 49.312102 49.312102l0 172.591847c0 27.368324-21.943778 49.312102-49.312102 49.312102-463.040938 0-838.305741-375.264802-838.305741-838.305741 0-27.368324 22.190395-49.312102 49.312102-49.312102l172.591847 0c27.368324 0 49.312102 21.943778 49.312102 49.312102 0 61.393255 9.862625 120.8146 28.108175 176.044482 5.424546 17.012466 1.479701 36.491099-12.081153 50.051953L246.947322 452.578656z" p-id="2383" fill="#1296db"></path></svg>