<?xml version="1.0" standalone="no"?><!DOCTYPE svg PUBLIC "-//W3C//DTD SVG 1.1//EN" "http://www.w3.org/Graphics/SVG/1.1/DTD/svg11.dtd"><svg t="1537773431959" class="icon" style="" viewBox="0 0 1027 1024" version="1.1" xmlns="http://www.w3.org/2000/svg" p-id="1579" xmlns:xlink="http://www.w3.org/1999/xlink" width="64.1875" height="64"><defs><style type="text/css"></style></defs><path d="M981.600015 373.726208 981.600015 543.26272l35.689472 35.699712-74.415104 77.443072-75.336704-75.158528 51.58912-46.90944L919.126799 400.489472c-218.90048 90.257408-289.074176 118.310912-337.620992 140.2112-48.54784 21.900288-83.506176 21.789696-131.652608 3.647488-48.1536-18.147328-277.363712-101.80096-391.17824-156.269568-75.948032-36.340736-80.837632-59.388928 1.304576-90.231808 107.200512-40.725504 284.38528-105.946112 378.305536-141.541376 55.593984-22.490112 84.995072-34.768896 136.026112-9.121792C665.431823 184.810496 873.641743 262.941696 977.174287 305.6896 1067.299599 345.020416 1006.710543 357.957632 981.600015 373.726208L981.600015 373.726208zM592.063247 607.809536c52.936704-21.84192 124.314624-57.957376 202.141696-91.298816L794.204943 784.20992c0 0-100.652032 107.07456-277.599232 107.07456-190.558208 0-293.490688-107.07456-293.490688-107.07456L223.115023 534.336512c60.068864 24.4736 127.521792 45.531136 209.153024 73.473024C482.579215 625.71008 546.421519 631.899136 592.063247 607.809536L592.063247 607.809536zM592.063247 607.809536" p-id="1580" fill="#1296db"></path></svg>