<?xml version="1.0" standalone="no"?><!DOCTYPE svg PUBLIC "-//W3C//DTD SVG 1.1//EN" "http://www.w3.org/Graphics/SVG/1.1/DTD/svg11.dtd"><svg t="1527952759476" class="icon" style="" viewBox="0 0 1475 1024" version="1.1" xmlns="http://www.w3.org/2000/svg" p-id="4032" xmlns:xlink="http://www.w3.org/1999/xlink" width="92.1875" height="64"><defs><style type="text/css"></style></defs><path d="M1166.075 289.042l-459.53-143.136c-9.338-2.977-20.080-4.694-31.223-4.694s-21.884 1.717-31.975 4.899l-458.81 142.931c-26.32 8.172-43.326 30.272-43.326 56.272s16.984 48.143 43.315 56.356l105.75 32.911c-0.548 1.964-0.89 4.231-0.946 6.567l0.262 304.807c0 40.483 33.295 75.457 86.811 91.308l25.092 7.478c85.72 25.359 179.752 38.048 273.806 38.048s188.117-12.69 273.848-38.069l25.006-7.478c53.58-15.852 86.874-50.825 86.874-91.308v-307.988c-0.333-2.379-0.913-4.525-1.725-6.553l106.803-29.722c26.298-8.214 43.283-30.337 43.283-56.356s-17.005-48.1-43.314-56.272zM1001.693 745.955c0 10.574-15.243 25.786-44.393 34.395l-25.038 7.477c-160.931 47.639-353.076 47.639-513.89 0l-25.123-7.477c-29.098-8.609-44.33-23.82-44.33-34.395v-293.108l295.212 91.863c9.33 2.96 20.062 4.664 31.191 4.664s21.861-1.706 31.945-4.869l294.425-91.659zM688.919 488.076c-4.069 1.296-8.749 2.044-13.603 2.044s-9.534-0.747-13.931-2.131l-459.288-142.267 459.562-143.136c4.014-1.308 8.632-2.062 13.426-2.062 0.050 0 0.098 0 0.147 0 4.851 0.004 9.532 0.759 13.928 2.158l459.343 142.313z" p-id="4033" fill="#ffffff"></path><path d="M1120.378 437.946c-0.008 0-0.014 0-0.021 0-16.377 0-29.653 13.276-29.653 29.653 0 0.008 0 0.016 0 0.022v237.368c0 16.389 13.284 29.674 29.674 29.674s29.674-13.284 29.674-29.674c0 0 0 0 0 0v-237.37c0-0.008 0-0.014 0-0.022 0-16.377-13.276-29.653-29.653-29.653-0.008 0-0.016 0-0.022 0z" p-id="4034" fill="#ffffff"></path></svg>