<?xml version="1.0" standalone="no"?><!DOCTYPE svg PUBLIC "-//W3C//DTD SVG 1.1//EN" "http://www.w3.org/Graphics/SVG/1.1/DTD/svg11.dtd"><svg t="1537775149994" class="icon" style="" viewBox="0 0 1316 1024" version="1.1" xmlns="http://www.w3.org/2000/svg" p-id="6396" xmlns:xlink="http://www.w3.org/1999/xlink" width="82.25" height="64"><defs><style type="text/css"></style></defs><path d="M258.857143 935.428571q0 12-9.142857 21.428572t-21.142857 9.428571q-0.571429 0-7.428572-1.714285-36-8.571429-92.571428-80Q0 722.285714 0 498.285714q0-194.857143 121.714286-350.857143 22.285714-29.142857 54.285714-59.142857t53.714286-30q10.857143 0 20 7.714286t9.142857 18.571429q0 15.428571-36 51.428571-56 58.285714-84 105.142857-68 113.714286-68 256.571429 0 160.571429 70.285714 280.571428 28.571429 48.571429 77.714286 98.857143 1.142857 1.714286 8.285714 9.142857t11.142857 12 9.714286 11.714286 8.285714 13.428571 2.571429 12z m767.428571-76.571428q0 16.571429-10 27.714286T989.714286 897.714286H372q-14.857143 0-25.714286-10.857143t-10.857143-25.714286q0-16.571429 10-27.714286T372 822.285714h617.714286q14.857143 0 25.714285 10.857143t10.857143 25.714286z m-122.857143-349.142857q0 76.571429-38.285714 133.142857-14.285714 21.714286-39.714286 44.857143T777.714286 722.285714q-9.142857 5.714286-15.428572 5.714286-4 0-8.571428-3.428571t-4.571429-6.857143q0-5.142857 10.857143-17.142857t24-26.285715 24-38.571428 10.857143-50.571429q0-43.428571-20-74.285714-16.571429-24-26.285714-24-1.714286 0-1.714286 2.857143 0 6.857143 4.285714 20.285714t4.285714 20.857143q0 12.571429-12.285714 20t-25.428571 7.428571q-37.714286 0-37.714286-43.428571 0-8.571429 0.857143-25.142857t0.857143-25.142857q0-14.285714-5.714286-26.285715-7.428571-14.285714-24-30.571428t-29.142857-16.285715q-2.857143 0-4 0.285715t-2 1.428571-0.857143 3.428572q0 1.142857 9.142857 14.857142t9.142857 30.857143q0 21.142857-10.857143 38.857143t-26.285714 30.857143-30.571428 26.285714-26 30.857143-10.857143 38.857143q0 56 24 91.428571 16.571429 24.571429 45.142857 36 9.142857 2.857143 9.714286 5.714286 0.571429 1.142857 0.571428 2.857143 0 9.142857-10.285714 9.142857-3.428571 0-18.857143-6.285714-68-24.571429-111.428571-79.714286T449.142857 542.285714q0-31.428571 14-66t34.285714-65.714285T537.714286 348.571429t34-64.857143T585.714286 220q0-30.285714-14.285715-53.714286-16.571429-27.428571-32-36.571428-10.857143-5.142857-10.857142-12 0-11.428571 23.428571-11.428572 28.571429 0 62.857143 16.571429 23.428571 10.857143 40.571428 25.428571t28.285715 29.142857T702.857143 213.142857t12.571428 39.428572 9.142858 45.714285q0 0.571429 1.714285 10t2.571429 14.285715 3.142857 14.285714 5.142857 15.428571 6.285714 12.285715 8.285715 9.428571 10.571428 3.142857q13.142857 0 21.142857-8t8-21.142857q0-14.285714-11.428571-38.285714t-11.428571-29.714286 5.714285-5.714286q15.428571 0 53.142857 40 41.142857 43.428571 58.571429 89.142857t17.428571 106.285715z m413.142858 16.571428q0 156.571429-78.857143 287.428572-10.857143 18.285714-27.428572 41.142857t-38.857143 49.428571-46.285714 44-42.285714 17.428572q-9.142857 0-17.714286-8.857143t-8.571428-18q0-8.571429 16.571428-28.857143t39.142857-44 27.714286-30q104.571429-131.428571 104.571429-303.428571 0-74.857143-11.714286-134.285715T1191.428571 277.714286q-33.142857-68-93.142857-130.285715-1.142857-1.714286-7.428571-7.714285t-9.428572-9.428572-8.571428-10-8.571429-11.428571-5.428571-10.571429-2.285714-10.857143q0-10.857143 9.142857-20.285714t20-9.428571q40 0 112 96.571428 56 74.857143 83.428571 156t34.285714 179.428572q1.142857 24 1.142858 36.571428z" p-id="6397" fill="#ffffff"></path></svg>