<?xml version="1.0" standalone="no"?><!DOCTYPE svg PUBLIC "-//W3C//DTD SVG 1.1//EN" "http://www.w3.org/Graphics/SVG/1.1/DTD/svg11.dtd"><svg t="1537775109951" class="icon" style="" viewBox="0 0 1024 1024" version="1.1" xmlns="http://www.w3.org/2000/svg" p-id="6175" xmlns:xlink="http://www.w3.org/1999/xlink" width="64" height="64"><defs><style type="text/css"></style></defs><path d="M123.424 668l344.576 229.728 0-205.152-190.848-127.424zM88 585.728l110.272-73.728-110.272-73.728 0 147.424zM556 897.728l344.576-229.728-153.728-102.848-190.848 127.424 0 205.152zM512 616l155.424-104-155.424-104-155.424 104zM277.152 458.848l190.848-127.424 0-205.152-344.576 229.728zM825.728 512l110.272 73.728 0-147.424zM746.848 458.848l153.728-102.848-344.576-229.728 0 205.152zM1024 356l0 312q0 23.424-19.424 36.576l-468 312q-12 7.424-24.576 7.424t-24.576-7.424l-468-312q-19.424-13.152-19.424-36.576l0-312q0-23.424 19.424-36.576l468-312q12-7.424 24.576-7.424t24.576 7.424l468 312q19.424 13.152 19.424 36.576z" p-id="6176" fill="#ffffff"></path></svg>